Coordinates
version=1
nRows=22
nColumns=24
inDegrees=yes

Units are S.I. units (second, meters, Newtons, ...)
Angles are in degrees.

endheader
time	pelvis_tilt	pelvis_list	pelvis_rotation	pelvis_tx	pelvis_ty	pelvis_tz	hip_flexion_r	hip_adduction_r	hip_rotation_r	knee_angle_r	ankle_angle_r	subtalar_angle_r	mtp_angle_r	hip_flexion_l	hip_adduction_l	hip_rotation_l	knee_angle_l	ankle_angle_l	subtalar_angle_l	mtp_angle_l	lumbar_extension	lumbar_bending	lumbar_rotation
      3.65000000	     -8.16856684	    -10.26299629	     11.83034619	     -2.76305978	     -0.01924321	      0.43691245	     21.70589390	      8.73631146	     -9.01146320	    -11.71032376	     -9.67913050	     -4.21826451	      3.91106343	     12.97622908	    -10.71201345	      7.20221829	    -53.83141018	    -30.83626219	      3.95592328	     30.70239723	      8.71863844	      7.20235073	     -5.67815008
      3.65500000	     -8.01737788	    -10.38194706	     11.71535340	     -2.75699737	     -0.01887490	      0.43763663	     21.09523462	      9.10793878	     -8.83001260	    -11.57996955	     -9.29010200	     -4.24530653	      4.10026109	     13.79112927	    -10.75225416	      7.21505823	    -55.28764434	    -30.74658384	      1.80850739	     29.63507304	      8.55320274	      7.31968894	     -5.41604336
      3.66000000	     -7.82464517	    -10.47235791	     11.60371190	     -2.75093710	     -0.01838900	      0.43840614	     20.39940335	      9.46755388	     -8.62337703	    -11.39047053	     -8.93999399	     -4.27394736	      4.17155526	     14.54136716	    -10.77332272	      7.23840843	    -56.65110523	    -30.43503308	     -0.16227424	     28.44223800	      8.34310231	      7.40627303	     -5.13052678
      3.66500000	     -7.63113422	    -10.50514229	     11.46609066	     -2.74492397	     -0.01782596	      0.43919975	     19.66716518	      9.76873560	     -8.34965321	    -11.16686741	     -8.56834982	     -4.17627706	      4.29010636	     15.26482790	    -10.72657332	      7.26070549	    -57.94399264	    -29.90812774	     -1.84742154	     26.97317383	      8.11435425	      7.43758802	     -4.80661383
      3.67000000	     -7.44458010	    -10.50503629	     11.38018171	     -2.73893873	     -0.01720230	      0.43997878	     18.91734693	     10.01885203	     -8.14744237	    -10.90308359	     -8.22831957	     -4.10846937	      4.36904114	     15.98678952	    -10.63080824	      7.33274693	    -59.09462675	    -29.42211365	     -3.50679584	     25.80194667	      7.89975397	      7.41361638	     -4.55446789
      3.67500000	     -7.27785539	    -10.46468017	     11.33542949	     -2.73299128	     -0.01651847	      0.44071604	     18.15676952	     10.20704445	     -7.96047992	    -10.59242872	     -7.92817182	     -4.03928536	      4.42689788	     16.71488692	    -10.46358985	      7.46528133	    -60.10760307	    -29.00361114	     -5.10039730	     24.89218517	      7.70814629	      7.33306711	     -4.36189050
      3.68000000	     -7.11865784	    -10.42435785	     11.23916523	     -2.72700569	     -0.01582991	      0.44151278	     17.38470608	     10.40509322	     -7.79210876	    -10.25181649	     -7.61395117	     -3.89296862	      4.53020067	     17.42429905	    -10.32102932	      7.53583143	    -61.01557839	    -28.53202818	     -6.49033141	     24.10499274	      7.53228337	      7.25876785	     -4.08363556
      3.68500000	     -6.99816516	    -10.25742192	     11.15764951	     -2.72105932	     -0.01505262	      0.44224310	     16.60561570	     10.44816201	     -7.54990585	     -9.88504322	     -7.27490466	     -3.70038364	      4.65230710	     18.11854539	    -10.00392210	      7.62213736	    -61.79367966	    -28.05558531	     -7.71153807	     23.27366702	      7.37679815	      7.04183639	     -3.86405506
      3.69000000	     -6.89505893	    -10.09130686	     11.05184282	     -2.71514330	     -0.01427559	      0.44298158	     15.83782745	     10.48697985	     -7.32092988	     -9.50276669	     -6.95611613	     -3.46442291	      4.77158333	     18.81585225	     -9.69156988	      7.69318159	    -62.47347912	    -27.51158228	     -8.69267197	     22.61335409	      7.23979877	      6.83079601	     -3.59155309
      3.69500000	     -6.83163690	     -9.86856881	     10.93923034	     -2.70923096	     -0.01347469	      0.44374099	     15.09277358	     10.45697653	     -7.07501916	     -9.11177653	     -6.65002925	     -3.23656622	      4.86389194	     19.51336518	     -9.31137065	      7.75195927	    -63.02447957	    -26.92756510	     -9.48392170	     22.13024983	      7.13826556	      6.54859607	     -3.33359830
      3.70000000	     -6.81909347	     -9.69424473	     10.85052346	     -2.70331658	     -0.01274569	      0.44449808	     14.39009524	     10.46029047	     -6.81203540	     -8.67517994	     -6.40874008	     -3.06731486	      4.90383801	     20.27391719	     -8.97353327	      7.86473505	    -63.46698657	    -26.29188071	    -10.02887860	     22.11757505	      7.11449517	      6.29976099	     -3.13972799
      3.70500000	     -6.78862013	     -9.35333761	     10.64611659	     -2.69740026	     -0.01186536	      0.44527003	     13.65546332	     10.30561959	     -6.50498398	     -8.30162188	     -6.07836066	     -2.78992922	      4.98995264	     20.90318185	     -8.50252108	      7.74654075	    -63.78237697	    -25.64342971	    -10.55541714	     21.64322881	      7.02788435	      5.91850471	     -2.75438590
      3.71000000	     -6.83366151	     -9.03306773	     10.53605192	     -2.69156189	     -0.01107861	      0.44598142	     13.01269003	     10.13387841	     -6.22294946	     -7.91940136	     -5.82623917	     -2.66334798	      4.99957309	     21.63270554	     -8.00522994	      7.75804272	    -63.98757670	    -24.93939473	    -10.86597179	     21.64290895	      7.03380767	      5.52162066	     -2.56318407
      3.71500000	     -6.89435093	     -8.65716319	     10.32927177	     -2.68571648	     -0.01024850	      0.44676809	     12.38470070	      9.91380980	     -5.84581592	     -7.56575902	     -5.58336013	     -2.49543878	      5.00366761	     22.31005718	     -7.49095656	      7.64447462	    -64.07090728	    -24.15162973	    -10.99468063	     21.64783047	      7.04004332	      5.08783625	     -2.22475614
      3.72000000	     -6.97727896	     -8.26218710	     10.10474828	     -2.67985969	     -0.00945246	      0.44755804	     11.77964509	      9.66854204	     -5.41624321	     -7.21908435	     -5.33364737	     -2.38350910	      4.97526766	     22.98450268	     -6.97610636	      7.48198143	    -64.05491506	    -23.31173897	    -10.96337427	     21.72280701	      7.07545795	      4.63886573	     -1.89377101
      3.72500000	     -7.08734005	     -7.83544740	      9.87376700	     -2.67407229	     -0.00868552	      0.44834149	     11.22774458	      9.37834516	     -4.96193095	     -6.91836522	     -5.10796755	     -2.34339274	      4.92409819	     23.65983106	     -6.42934145	      7.30045911	    -63.93492312	    -22.43180046	    -10.83704735	     21.86705231	      7.12828700	      4.15869995	     -1.57344899
      3.73000000	     -7.22663426	     -7.37889370	      9.62359865	     -2.66828025	     -0.00793529	      0.44914482	     10.71388962	      9.04921334	     -4.50886169	     -6.63064246	     -4.90157065	     -2.32312010	      4.88257500	     24.33031331	     -5.86457086	      7.08299642	    -63.70097272	    -21.58248754	    -10.65166252	     22.06880403	      7.21212378	      3.64677618	     -1.22120873
      3.73500000	     -7.37237525	     -6.91619795	      9.34260949	     -2.66251364	     -0.00723840	      0.44994394	     10.22573086	      8.70944694	     -4.01803869	     -6.37275742	     -4.70081549	     -2.33450853	      4.84007357	     24.98339571	     -5.31423545	      6.82442212	    -63.38085057	    -20.70765771	    -10.40073642	     22.30283691	      7.30322905	      3.14423681	     -0.84824033
      3.74000000	     -7.52458903	     -6.44207756	      9.06326234	     -2.65680322	     -0.00659060	      0.45072284	      9.77568805	      8.34776332	     -3.56189960	     -6.15993837	     -4.49745975	     -2.36394947	      4.81286435	     25.62501126	     -4.75386957	      6.56131451	    -62.97147056	    -19.86185241	    -10.16332007	     22.53019691	      7.39590788	      2.63171180	     -0.47677910
      3.74500000	     -7.67156564	     -5.99150923	      8.72186774	     -2.65102613	     -0.00601105	      0.45153057	      9.30906676	      8.01402329	     -3.02747159	     -5.91913694	     -4.29922046	     -2.37490456	      4.79016619	     26.23975383	     -4.26525784	      6.23432155	    -62.49281501	    -19.00600620	     -9.83942247	     22.77261233	      7.50270002	      2.17094773	     -0.05808413
      3.75000000	     -7.81104153	     -5.54833532	      8.38203241	     -2.64529579	     -0.00550162	      0.45230434	      8.86507350	      7.67970532	     -2.53352861	     -5.71676769	     -4.09112644	     -2.38974113	      4.78107911	     26.83667096	     -3.78793745	      5.91306410	    -61.94448609	    -18.18333751	     -9.55681976	     22.97886332	      7.60130177	      1.72522021	      0.35457856
      3.75500000	     -7.94389908	     -5.11499141	      8.04949608	     -2.63960349	     -0.00507379	      0.45303822	      8.44362784	      7.34678560	     -2.08761705	     -5.55402975	     -3.85814436	     -2.38921569	      4.78795373	     27.42033462	     -3.32208353	      5.60303809	    -61.33183237	    -17.40858148	     -9.33385894	     23.15335654	      7.69023116	      1.29512677	      0.75621996
